<svg xmlns="http://www.w3.org/2000/svg" version="1.1" xmlns:xlink="http://www.w3.org/1999/xlink" xmlns:svgjs="http://svgjs.dev/svgjs" width="1440" height="560" preserveAspectRatio="none" viewBox="0 0 1440 560"><g mask="url(&quot;#SvgjsMask1086&quot;)" fill="none"><path d="M163.395,280.509C197.83,279.971,225.969,256.479,243.448,226.805C261.243,196.595,269.041,160.054,252.586,129.093C235.198,96.376,200.442,76.678,163.395,76.179C125.455,75.668,88.268,93.408,69.941,126.631C52.143,158.895,59.759,197.884,78.886,229.378C97.204,259.539,128.111,281.061,163.395,280.509" fill="rgba(4, 235, 237, 0.4)" class="triangle-float3"></path><path d="M1377.275,766.557C1436.418,766.755,1488.318,730.197,1517.68,678.857C1546.821,627.903,1551.398,565.036,1521.371,514.6C1491.966,465.209,1434.75,443.941,1377.275,443.02C1317.856,442.068,1255.181,458.686,1224.952,509.85C1194.309,561.715,1207.748,626.115,1238.489,677.922C1268.511,728.517,1318.443,766.36,1377.275,766.557" fill="rgba(4, 235, 237, 0.4)" class="triangle-float3"></path><path d="M382.497,608.513C413.057,608.996,439.332,588.631,454.28,561.972C468.882,535.93,470.244,504.342,455.444,478.412C440.518,452.262,412.595,435.346,382.497,436.205C353.709,437.026,330.299,457.143,316.42,482.378C303.093,506.61,301.707,535.266,314.54,559.763C328.406,586.231,352.621,608.041,382.497,608.513" fill="rgba(4, 235, 237, 0.4)" class="triangle-float3"></path><path d="M1222.257,351.336C1258.071,352.777,1296.209,345.666,1316.095,315.845C1337.971,283.04,1338.119,240.282,1319.486,205.532C1299.769,168.76,1263.947,139.142,1222.257,140.836C1182.625,142.446,1155.147,177.236,1137.811,212.912C1122.834,243.733,1122.798,279.533,1140.644,308.786C1157.769,336.857,1189.402,350.014,1222.257,351.336" fill="rgba(4, 235, 237, 0.4)" class="triangle-float1"></path></g><defs><mask id="SvgjsMask1086"><rect width="1440" height="560" fill="#ffffff"></rect></mask><style>
                @keyframes float1 {
                    0%{transform: translate(0, 0)}
                    50%{transform: translate(-10px, 0)}
                    100%{transform: translate(0, 0)}
                }

                .triangle-float1 {
                    animation: float1 5s infinite;
                }

                @keyframes float2 {
                    0%{transform: translate(0, 0)}
                    50%{transform: translate(-5px, -5px)}
                    100%{transform: translate(0, 0)}
                }

                .triangle-float2 {
                    animation: float2 4s infinite;
                }

                @keyframes float3 {
                    0%{transform: translate(0, 0)}
                    50%{transform: translate(0, -10px)}
                    100%{transform: translate(0, 0)}
                }

                .triangle-float3 {
                    animation: float3 6s infinite;
                }
            </style></defs></svg>