<svg xmlns="http://www.w3.org/2000/svg" version="1.1" xmlns:xlink="http://www.w3.org/1999/xlink" xmlns:svgjs="http://svgjs.dev/svgjs" width="1440" height="560" preserveAspectRatio="none" viewBox="0 0 1440 560"><g clip-path="url(&quot;#SvgjsClipPath1066&quot;)" fill="none"><circle r="34" cx="631" cy="84" fill="rgba(87, 199, 133, 1)" opacity="0.07" filter="blur(9px)"></circle><circle r="24" cx="631" cy="84" fill="rgba(87, 199, 133, 1)" opacity="0.11" filter="blur(6px)"></circle><circle r="14" cx="631" cy="84" fill="rgba(87, 199, 133, 1)" opacity="0.22" filter="blur(3px)"></circle><circle r="4" cx="631" cy="84" fill="rgba(87, 199, 133, 1)" opacity="0.72" filter="drop-shadow(0 0 40px rgba(87, 199, 133, 1))"></circle><circle r="38.25" cx="617" cy="432" fill="rgba(42, 123, 155, 1)" opacity="0.08" filter="blur(9px)"></circle><circle r="27" cx="617" cy="432" fill="rgba(42, 123, 155, 1)" opacity="0.12" filter="blur(6px)"></circle><circle r="15.75" cx="617" cy="432" fill="rgba(42, 123, 155, 1)" opacity="0.23" filter="blur(3px)"></circle><circle r="4.5" cx="617" cy="432" fill="rgba(42, 123, 155, 1)" opacity="0.78" filter="drop-shadow(0 0 45px rgba(42, 123, 155, 1))"></circle><circle r="25.5" cx="87" cy="400" fill="rgba(87, 199, 133, 1)" opacity="0.08" filter="blur(9px)"></circle><circle r="18" cx="87" cy="400" fill="rgba(87, 199, 133, 1)" opacity="0.12" filter="blur(6px)"></circle><circle r="10.5" cx="87" cy="400" fill="rgba(87, 199, 133, 1)" opacity="0.25" filter="blur(3px)"></circle><circle r="3" cx="87" cy="400" fill="rgba(87, 199, 133, 1)" opacity="0.82" filter="drop-shadow(0 0 30px rgba(87, 199, 133, 1))"></circle><circle r="29.75" cx="407" cy="328" fill="rgba(42, 123, 155, 1)" opacity="0.07" filter="blur(9px)"></circle><circle r="21" cx="407" cy="328" fill="rgba(42, 123, 155, 1)" opacity="0.1" filter="blur(6px)"></circle><circle r="12.25" cx="407" cy="328" fill="rgba(42, 123, 155, 1)" opacity="0.2" filter="blur(3px)"></circle><circle r="3.5" cx="407" cy="328" fill="rgba(42, 123, 155, 1)" opacity="0.66" filter="drop-shadow(0 0 35px rgba(42, 123, 155, 1))"></circle><circle r="38.25" cx="1350" cy="25" fill="rgba(87, 199, 133, 1)" opacity="0.06" filter="blur(9px)"></circle><circle r="27" cx="1350" cy="25" fill="rgba(87, 199, 133, 1)" opacity="0.09" filter="blur(6px)"></circle><circle r="15.75" cx="1350" cy="25" fill="rgba(87, 199, 133, 1)" opacity="0.18" filter="blur(3px)"></circle><circle r="4.5" cx="1350" cy="25" fill="rgba(87, 199, 133, 1)" opacity="0.61" filter="drop-shadow(0 0 45px rgba(87, 199, 133, 1))"></circle><circle r="25.5" cx="555" cy="132" fill="rgba(42, 123, 155, 1)" opacity="0.07" filter="blur(9px)"></circle><circle r="18" cx="555" cy="132" fill="rgba(42, 123, 155, 1)" opacity="0.11" filter="blur(6px)"></circle><circle r="10.5" cx="555" cy="132" fill="rgba(42, 123, 155, 1)" opacity="0.22" filter="blur(3px)"></circle><circle r="3" cx="555" cy="132" fill="rgba(42, 123, 155, 1)" opacity="0.73" filter="drop-shadow(0 0 30px rgba(42, 123, 155, 1))"></circle><circle r="34" cx="192" cy="137" fill="rgba(87, 199, 133, 1)" opacity="0.1" filter="blur(9px)"></circle><circle r="24" cx="192" cy="137" fill="rgba(87, 199, 133, 1)" opacity="0.15" filter="blur(6px)"></circle><circle r="14" cx="192" cy="137" fill="rgba(87, 199, 133, 1)" opacity="0.29" filter="blur(3px)"></circle><circle r="4" cx="192" cy="137" fill="rgba(87, 199, 133, 1)" opacity="0.97" filter="drop-shadow(0 0 40px rgba(87, 199, 133, 1))"></circle><circle r="38.25" cx="55" cy="354" fill="rgba(87, 199, 133, 1)" opacity="0.09" filter="blur(9px)"></circle><circle r="27" cx="55" cy="354" fill="rgba(87, 199, 133, 1)" opacity="0.13" filter="blur(6px)"></circle><circle r="15.75" cx="55" cy="354" fill="rgba(87, 199, 133, 1)" opacity="0.26" filter="blur(3px)"></circle><circle r="4.5" cx="55" cy="354" fill="rgba(87, 199, 133, 1)" opacity="0.87" filter="drop-shadow(0 0 45px rgba(87, 199, 133, 1))"></circle><circle r="42.5" cx="44" cy="273" fill="rgba(42, 123, 155, 1)" opacity="0.09" filter="blur(9px)"></circle><circle r="30" cx="44" cy="273" fill="rgba(42, 123, 155, 1)" opacity="0.13" filter="blur(6px)"></circle><circle r="17.5" cx="44" cy="273" fill="rgba(42, 123, 155, 1)" opacity="0.26" filter="blur(3px)"></circle><circle r="5" cx="44" cy="273" fill="rgba(42, 123, 155, 1)" opacity="0.85" filter="drop-shadow(0 0 50px rgba(42, 123, 155, 1))"></circle><circle r="34" cx="152" cy="118" fill="rgba(237, 221, 83, 1)" opacity="0.07" filter="blur(9px)"></circle><circle r="24" cx="152" cy="118" fill="rgba(237, 221, 83, 1)" opacity="0.11" filter="blur(6px)"></circle><circle r="14" cx="152" cy="118" fill="rgba(237, 221, 83, 1)" opacity="0.22" filter="blur(3px)"></circle><circle r="4" cx="152" cy="118" fill="rgba(237, 221, 83, 1)" opacity="0.74" filter="drop-shadow(0 0 40px rgba(237, 221, 83, 1))"></circle><circle r="38.25" cx="1343" cy="122" fill="rgba(87, 199, 133, 1)" opacity="0.08" filter="blur(9px)"></circle><circle r="27" cx="1343" cy="122" fill="rgba(87, 199, 133, 1)" opacity="0.12" filter="blur(6px)"></circle><circle r="15.75" cx="1343" cy="122" fill="rgba(87, 199, 133, 1)" opacity="0.24" filter="blur(3px)"></circle><circle r="4.5" cx="1343" cy="122" fill="rgba(87, 199, 133, 1)" opacity="0.81" filter="drop-shadow(0 0 45px rgba(87, 199, 133, 1))"></circle><circle r="42.5" cx="1016" cy="193" fill="rgba(87, 199, 133, 1)" opacity="0.09" filter="blur(9px)"></circle><circle r="30" cx="1016" cy="193" fill="rgba(87, 199, 133, 1)" opacity="0.14" filter="blur(6px)"></circle><circle r="17.5" cx="1016" cy="193" fill="rgba(87, 199, 133, 1)" opacity="0.27" filter="blur(3px)"></circle><circle r="5" cx="1016" cy="193" fill="rgba(87, 199, 133, 1)" opacity="0.9" filter="drop-shadow(0 0 50px rgba(87, 199, 133, 1))"></circle><circle r="34" cx="1213" cy="477" fill="rgba(42, 123, 155, 1)" opacity="0.07" filter="blur(9px)"></circle><circle r="24" cx="1213" cy="477" fill="rgba(42, 123, 155, 1)" opacity="0.11" filter="blur(6px)"></circle><circle r="14" cx="1213" cy="477" fill="rgba(42, 123, 155, 1)" opacity="0.22" filter="blur(3px)"></circle><circle r="4" cx="1213" cy="477" fill="rgba(42, 123, 155, 1)" opacity="0.74" filter="drop-shadow(0 0 40px rgba(42, 123, 155, 1))"></circle><circle r="34" cx="1264" cy="437" fill="rgba(42, 123, 155, 1)" opacity="0.09" filter="blur(9px)"></circle><circle r="24" cx="1264" cy="437" fill="rgba(42, 123, 155, 1)" opacity="0.14" filter="blur(6px)"></circle><circle r="14" cx="1264" cy="437" fill="rgba(42, 123, 155, 1)" opacity="0.27" filter="blur(3px)"></circle><circle r="4" cx="1264" cy="437" fill="rgba(42, 123, 155, 1)" opacity="0.9" filter="drop-shadow(0 0 40px rgba(42, 123, 155, 1))"></circle><circle r="25.5" cx="96" cy="377" fill="rgba(42, 123, 155, 1)" opacity="0.06" filter="blur(9px)"></circle><circle r="18" cx="96" cy="377" fill="rgba(42, 123, 155, 1)" opacity="0.08" filter="blur(6px)"></circle><circle r="10.5" cx="96" cy="377" fill="rgba(42, 123, 155, 1)" opacity="0.17" filter="blur(3px)"></circle><circle r="3" cx="96" cy="377" fill="rgba(42, 123, 155, 1)" opacity="0.55" filter="drop-shadow(0 0 30px rgba(42, 123, 155, 1))"></circle><circle r="38.25" cx="658" cy="405" fill="rgba(237, 221, 83, 1)" opacity="0.06" filter="blur(9px)"></circle><circle r="27" cx="658" cy="405" fill="rgba(237, 221, 83, 1)" opacity="0.09" filter="blur(6px)"></circle><circle r="15.75" cx="658" cy="405" fill="rgba(237, 221, 83, 1)" opacity="0.18" filter="blur(3px)"></circle><circle r="4.5" cx="658" cy="405" fill="rgba(237, 221, 83, 1)" opacity="0.59" filter="drop-shadow(0 0 45px rgba(237, 221, 83, 1))"></circle><circle r="34" cx="887" cy="382" fill="rgba(87, 199, 133, 1)" opacity="0.05" filter="blur(9px)"></circle><circle r="24" cx="887" cy="382" fill="rgba(87, 199, 133, 1)" opacity="0.08" filter="blur(6px)"></circle><circle r="14" cx="887" cy="382" fill="rgba(87, 199, 133, 1)" opacity="0.16" filter="blur(3px)"></circle><circle r="4" cx="887" cy="382" fill="rgba(87, 199, 133, 1)" opacity="0.54" filter="drop-shadow(0 0 40px rgba(87, 199, 133, 1))"></circle><circle r="25.5" cx="376" cy="403" fill="rgba(42, 123, 155, 1)" opacity="0.07" filter="blur(9px)"></circle><circle r="18" cx="376" cy="403" fill="rgba(42, 123, 155, 1)" opacity="0.1" filter="blur(6px)"></circle><circle r="10.5" cx="376" cy="403" fill="rgba(42, 123, 155, 1)" opacity="0.2" filter="blur(3px)"></circle><circle r="3" cx="376" cy="403" fill="rgba(42, 123, 155, 1)" opacity="0.65" filter="drop-shadow(0 0 30px rgba(42, 123, 155, 1))"></circle><circle r="38.25" cx="73" cy="92" fill="rgba(42, 123, 155, 1)" opacity="0.07" filter="blur(9px)"></circle><circle r="27" cx="73" cy="92" fill="rgba(42, 123, 155, 1)" opacity="0.11" filter="blur(6px)"></circle><circle r="15.75" cx="73" cy="92" fill="rgba(42, 123, 155, 1)" opacity="0.21" filter="blur(3px)"></circle><circle r="4.5" cx="73" cy="92" fill="rgba(42, 123, 155, 1)" opacity="0.71" filter="drop-shadow(0 0 45px rgba(42, 123, 155, 1))"></circle><circle r="42.5" cx="1239" cy="200" fill="rgba(237, 221, 83, 1)" opacity="0.06" filter="blur(9px)"></circle><circle r="30" cx="1239" cy="200" fill="rgba(237, 221, 83, 1)" opacity="0.1" filter="blur(6px)"></circle><circle r="17.5" cx="1239" cy="200" fill="rgba(237, 221, 83, 1)" opacity="0.19" filter="blur(3px)"></circle><circle r="5" cx="1239" cy="200" fill="rgba(237, 221, 83, 1)" opacity="0.64" filter="drop-shadow(0 0 50px rgba(237, 221, 83, 1))"></circle><circle r="29.75" cx="610" cy="372" fill="rgba(237, 221, 83, 1)" opacity="0.07" filter="blur(9px)"></circle><circle r="21" cx="610" cy="372" fill="rgba(237, 221, 83, 1)" opacity="0.1" filter="blur(6px)"></circle><circle r="12.25" cx="610" cy="372" fill="rgba(237, 221, 83, 1)" opacity="0.2" filter="blur(3px)"></circle><circle r="3.5" cx="610" cy="372" fill="rgba(237, 221, 83, 1)" opacity="0.66" filter="drop-shadow(0 0 35px rgba(237, 221, 83, 1))"></circle><circle r="21.25" cx="815" cy="464" fill="rgba(237, 221, 83, 1)" opacity="0.07" filter="blur(9px)"></circle><circle r="15" cx="815" cy="464" fill="rgba(237, 221, 83, 1)" opacity="0.1" filter="blur(6px)"></circle><circle r="8.75" cx="815" cy="464" fill="rgba(237, 221, 83, 1)" opacity="0.2" filter="blur(3px)"></circle><circle r="2.5" cx="815" cy="464" fill="rgba(237, 221, 83, 1)" opacity="0.68" filter="drop-shadow(0 0 25px rgba(237, 221, 83, 1))"></circle><circle r="29.75" cx="1360" cy="497" fill="rgba(237, 221, 83, 1)" opacity="0.07" filter="blur(9px)"></circle><circle r="21" cx="1360" cy="497" fill="rgba(237, 221, 83, 1)" opacity="0.11" filter="blur(6px)"></circle><circle r="12.25" cx="1360" cy="497" fill="rgba(237, 221, 83, 1)" opacity="0.22" filter="blur(3px)"></circle><circle r="3.5" cx="1360" cy="497" fill="rgba(237, 221, 83, 1)" opacity="0.73" filter="drop-shadow(0 0 35px rgba(237, 221, 83, 1))"></circle><circle r="34" cx="228" cy="497" fill="rgba(42, 123, 155, 1)" opacity="0.08" filter="blur(9px)"></circle><circle r="24" cx="228" cy="497" fill="rgba(42, 123, 155, 1)" opacity="0.12" filter="blur(6px)"></circle><circle r="14" cx="228" cy="497" fill="rgba(42, 123, 155, 1)" opacity="0.24" filter="blur(3px)"></circle><circle r="4" cx="228" cy="497" fill="rgba(42, 123, 155, 1)" opacity="0.79" filter="drop-shadow(0 0 40px rgba(42, 123, 155, 1))"></circle><circle r="25.5" cx="1013" cy="419" fill="rgba(237, 221, 83, 1)" opacity="0.08" filter="blur(9px)"></circle><circle r="18" cx="1013" cy="419" fill="rgba(237, 221, 83, 1)" opacity="0.12" filter="blur(6px)"></circle><circle r="10.5" cx="1013" cy="419" fill="rgba(237, 221, 83, 1)" opacity="0.24" filter="blur(3px)"></circle><circle r="3" cx="1013" cy="419" fill="rgba(237, 221, 83, 1)" opacity="0.79" filter="drop-shadow(0 0 30px rgba(237, 221, 83, 1))"></circle><circle r="25.5" cx="943" cy="110" fill="rgba(42, 123, 155, 1)" opacity="0.06" filter="blur(9px)"></circle><circle r="18" cx="943" cy="110" fill="rgba(42, 123, 155, 1)" opacity="0.08" filter="blur(6px)"></circle><circle r="10.5" cx="943" cy="110" fill="rgba(42, 123, 155, 1)" opacity="0.17" filter="blur(3px)"></circle><circle r="3" cx="943" cy="110" fill="rgba(42, 123, 155, 1)" opacity="0.55" filter="drop-shadow(0 0 30px rgba(42, 123, 155, 1))"></circle><circle r="38.25" cx="1183" cy="207" fill="rgba(237, 221, 83, 1)" opacity="0.07" filter="blur(9px)"></circle><circle r="27" cx="1183" cy="207" fill="rgba(237, 221, 83, 1)" opacity="0.1" filter="blur(6px)"></circle><circle r="15.75" cx="1183" cy="207" fill="rgba(237, 221, 83, 1)" opacity="0.2" filter="blur(3px)"></circle><circle r="4.5" cx="1183" cy="207" fill="rgba(237, 221, 83, 1)" opacity="0.65" filter="drop-shadow(0 0 45px rgba(237, 221, 83, 1))"></circle><circle r="34" cx="699" cy="275" fill="rgba(87, 199, 133, 1)" opacity="0.05" filter="blur(9px)"></circle><circle r="24" cx="699" cy="275" fill="rgba(87, 199, 133, 1)" opacity="0.08" filter="blur(6px)"></circle><circle r="14" cx="699" cy="275" fill="rgba(87, 199, 133, 1)" opacity="0.16" filter="blur(3px)"></circle><circle r="4" cx="699" cy="275" fill="rgba(87, 199, 133, 1)" opacity="0.52" filter="drop-shadow(0 0 40px rgba(87, 199, 133, 1))"></circle><circle r="29.75" cx="58" cy="201" fill="rgba(87, 199, 133, 1)" opacity="0.06" filter="blur(9px)"></circle><circle r="21" cx="58" cy="201" fill="rgba(87, 199, 133, 1)" opacity="0.09" filter="blur(6px)"></circle><circle r="12.25" cx="58" cy="201" fill="rgba(87, 199, 133, 1)" opacity="0.17" filter="blur(3px)"></circle><circle r="3.5" cx="58" cy="201" fill="rgba(87, 199, 133, 1)" opacity="0.58" filter="drop-shadow(0 0 35px rgba(87, 199, 133, 1))"></circle><circle r="34" cx="571" cy="489" fill="rgba(42, 123, 155, 1)" opacity="0.08" filter="blur(9px)"></circle><circle r="24" cx="571" cy="489" fill="rgba(42, 123, 155, 1)" opacity="0.12" filter="blur(6px)"></circle><circle r="14" cx="571" cy="489" fill="rgba(42, 123, 155, 1)" opacity="0.24" filter="blur(3px)"></circle><circle r="4" cx="571" cy="489" fill="rgba(42, 123, 155, 1)" opacity="0.79" filter="drop-shadow(0 0 40px rgba(42, 123, 155, 1))"></circle><circle r="21.25" cx="582" cy="190" fill="rgba(42, 123, 155, 1)" opacity="0.08" filter="blur(9px)"></circle><circle r="15" cx="582" cy="190" fill="rgba(42, 123, 155, 1)" opacity="0.12" filter="blur(6px)"></circle><circle r="8.75" cx="582" cy="190" fill="rgba(42, 123, 155, 1)" opacity="0.23" filter="blur(3px)"></circle><circle r="2.5" cx="582" cy="190" fill="rgba(42, 123, 155, 1)" opacity="0.78" filter="drop-shadow(0 0 25px rgba(42, 123, 155, 1))"></circle><circle r="34" cx="711" cy="331" fill="rgba(42, 123, 155, 1)" opacity="0.1" filter="blur(9px)"></circle><circle r="24" cx="711" cy="331" fill="rgba(42, 123, 155, 1)" opacity="0.15" filter="blur(6px)"></circle><circle r="14" cx="711" cy="331" fill="rgba(42, 123, 155, 1)" opacity="0.3" filter="blur(3px)"></circle><circle r="4" cx="711" cy="331" fill="rgba(42, 123, 155, 1)" opacity="1" filter="drop-shadow(0 0 40px rgba(42, 123, 155, 1))"></circle><circle r="38.25" cx="1205" cy="531" fill="rgba(42, 123, 155, 1)" opacity="0.07" filter="blur(9px)"></circle><circle r="27" cx="1205" cy="531" fill="rgba(42, 123, 155, 1)" opacity="0.1" filter="blur(6px)"></circle><circle r="15.75" cx="1205" cy="531" fill="rgba(42, 123, 155, 1)" opacity="0.2" filter="blur(3px)"></circle><circle r="4.5" cx="1205" cy="531" fill="rgba(42, 123, 155, 1)" opacity="0.68" filter="drop-shadow(0 0 45px rgba(42, 123, 155, 1))"></circle><circle r="29.75" cx="1068" cy="469" fill="rgba(237, 221, 83, 1)" opacity="0.06" filter="blur(9px)"></circle><circle r="21" cx="1068" cy="469" fill="rgba(237, 221, 83, 1)" opacity="0.08" filter="blur(6px)"></circle><circle r="12.25" cx="1068" cy="469" fill="rgba(237, 221, 83, 1)" opacity="0.17" filter="blur(3px)"></circle><circle r="3.5" cx="1068" cy="469" fill="rgba(237, 221, 83, 1)" opacity="0.56" filter="drop-shadow(0 0 35px rgba(237, 221, 83, 1))"></circle><circle r="38.25" cx="392" cy="65" fill="rgba(42, 123, 155, 1)" opacity="0.1" filter="blur(9px)"></circle><circle r="27" cx="392" cy="65" fill="rgba(42, 123, 155, 1)" opacity="0.15" filter="blur(6px)"></circle><circle r="15.75" cx="392" cy="65" fill="rgba(42, 123, 155, 1)" opacity="0.29" filter="blur(3px)"></circle><circle r="4.5" cx="392" cy="65" fill="rgba(42, 123, 155, 1)" opacity="0.98" filter="drop-shadow(0 0 45px rgba(42, 123, 155, 1))"></circle><circle r="42.5" cx="1230" cy="139" fill="rgba(237, 221, 83, 1)" opacity="0.06" filter="blur(9px)"></circle><circle r="30" cx="1230" cy="139" fill="rgba(237, 221, 83, 1)" opacity="0.09" filter="blur(6px)"></circle><circle r="17.5" cx="1230" cy="139" fill="rgba(237, 221, 83, 1)" opacity="0.19" filter="blur(3px)"></circle><circle r="5" cx="1230" cy="139" fill="rgba(237, 221, 83, 1)" opacity="0.63" filter="drop-shadow(0 0 50px rgba(237, 221, 83, 1))"></circle><circle r="38.25" cx="562" cy="177" fill="rgba(42, 123, 155, 1)" opacity="0.08" filter="blur(9px)"></circle><circle r="27" cx="562" cy="177" fill="rgba(42, 123, 155, 1)" opacity="0.12" filter="blur(6px)"></circle><circle r="15.75" cx="562" cy="177" fill="rgba(42, 123, 155, 1)" opacity="0.25" filter="blur(3px)"></circle><circle r="4.5" cx="562" cy="177" fill="rgba(42, 123, 155, 1)" opacity="0.83" filter="drop-shadow(0 0 45px rgba(42, 123, 155, 1))"></circle><circle r="25.5" cx="737" cy="59" fill="rgba(42, 123, 155, 1)" opacity="0.1" filter="blur(9px)"></circle><circle r="18" cx="737" cy="59" fill="rgba(42, 123, 155, 1)" opacity="0.15" filter="blur(6px)"></circle><circle r="10.5" cx="737" cy="59" fill="rgba(42, 123, 155, 1)" opacity="0.29" filter="blur(3px)"></circle><circle r="3" cx="737" cy="59" fill="rgba(42, 123, 155, 1)" opacity="0.98" filter="drop-shadow(0 0 30px rgba(42, 123, 155, 1))"></circle><circle r="38.25" cx="236" cy="431" fill="rgba(42, 123, 155, 1)" opacity="0.07" filter="blur(9px)"></circle><circle r="27" cx="236" cy="431" fill="rgba(42, 123, 155, 1)" opacity="0.1" filter="blur(6px)"></circle><circle r="15.75" cx="236" cy="431" fill="rgba(42, 123, 155, 1)" opacity="0.21" filter="blur(3px)"></circle><circle r="4.5" cx="236" cy="431" fill="rgba(42, 123, 155, 1)" opacity="0.7" filter="drop-shadow(0 0 45px rgba(42, 123, 155, 1))"></circle><circle r="42.5" cx="329" cy="85" fill="rgba(42, 123, 155, 1)" opacity="0.1" filter="blur(9px)"></circle><circle r="30" cx="329" cy="85" fill="rgba(42, 123, 155, 1)" opacity="0.15" filter="blur(6px)"></circle><circle r="17.5" cx="329" cy="85" fill="rgba(42, 123, 155, 1)" opacity="0.29" filter="blur(3px)"></circle><circle r="5" cx="329" cy="85" fill="rgba(42, 123, 155, 1)" opacity="0.98" filter="drop-shadow(0 0 50px rgba(42, 123, 155, 1))"></circle><circle r="29.75" cx="898" cy="456" fill="rgba(87, 199, 133, 1)" opacity="0.08" filter="blur(9px)"></circle><circle r="21" cx="898" cy="456" fill="rgba(87, 199, 133, 1)" opacity="0.13" filter="blur(6px)"></circle><circle r="12.25" cx="898" cy="456" fill="rgba(87, 199, 133, 1)" opacity="0.25" filter="blur(3px)"></circle><circle r="3.5" cx="898" cy="456" fill="rgba(87, 199, 133, 1)" opacity="0.84" filter="drop-shadow(0 0 35px rgba(87, 199, 133, 1))"></circle><circle r="38.25" cx="1376" cy="85" fill="rgba(87, 199, 133, 1)" opacity="0.05" filter="blur(9px)"></circle><circle r="27" cx="1376" cy="85" fill="rgba(87, 199, 133, 1)" opacity="0.08" filter="blur(6px)"></circle><circle r="15.75" cx="1376" cy="85" fill="rgba(87, 199, 133, 1)" opacity="0.15" filter="blur(3px)"></circle><circle r="4.5" cx="1376" cy="85" fill="rgba(87, 199, 133, 1)" opacity="0.51" filter="drop-shadow(0 0 45px rgba(87, 199, 133, 1))"></circle><circle r="38.25" cx="228" cy="334" fill="rgba(237, 221, 83, 1)" opacity="0.1" filter="blur(9px)"></circle><circle r="27" cx="228" cy="334" fill="rgba(237, 221, 83, 1)" opacity="0.15" filter="blur(6px)"></circle><circle r="15.75" cx="228" cy="334" fill="rgba(237, 221, 83, 1)" opacity="0.3" filter="blur(3px)"></circle><circle r="4.5" cx="228" cy="334" fill="rgba(237, 221, 83, 1)" opacity="0.99" filter="drop-shadow(0 0 45px rgba(237, 221, 83, 1))"></circle><circle r="25.5" cx="482" cy="219" fill="rgba(42, 123, 155, 1)" opacity="0.09" filter="blur(9px)"></circle><circle r="18" cx="482" cy="219" fill="rgba(42, 123, 155, 1)" opacity="0.13" filter="blur(6px)"></circle><circle r="10.5" cx="482" cy="219" fill="rgba(42, 123, 155, 1)" opacity="0.26" filter="blur(3px)"></circle><circle r="3" cx="482" cy="219" fill="rgba(42, 123, 155, 1)" opacity="0.87" filter="drop-shadow(0 0 30px rgba(42, 123, 155, 1))"></circle><circle r="25.5" cx="338" cy="59" fill="rgba(87, 199, 133, 1)" opacity="0.06" filter="blur(9px)"></circle><circle r="18" cx="338" cy="59" fill="rgba(87, 199, 133, 1)" opacity="0.09" filter="blur(6px)"></circle><circle r="10.5" cx="338" cy="59" fill="rgba(87, 199, 133, 1)" opacity="0.18" filter="blur(3px)"></circle><circle r="3" cx="338" cy="59" fill="rgba(87, 199, 133, 1)" opacity="0.6" filter="drop-shadow(0 0 30px rgba(87, 199, 133, 1))"></circle><circle r="34" cx="58" cy="341" fill="rgba(237, 221, 83, 1)" opacity="0.08" filter="blur(9px)"></circle><circle r="24" cx="58" cy="341" fill="rgba(237, 221, 83, 1)" opacity="0.11" filter="blur(6px)"></circle><circle r="14" cx="58" cy="341" fill="rgba(237, 221, 83, 1)" opacity="0.23" filter="blur(3px)"></circle><circle r="4" cx="58" cy="341" fill="rgba(237, 221, 83, 1)" opacity="0.76" filter="drop-shadow(0 0 40px rgba(237, 221, 83, 1))"></circle><circle r="29.75" cx="739" cy="460" fill="rgba(87, 199, 133, 1)" opacity="0.07" filter="blur(9px)"></circle><circle r="21" cx="739" cy="460" fill="rgba(87, 199, 133, 1)" opacity="0.1" filter="blur(6px)"></circle><circle r="12.25" cx="739" cy="460" fill="rgba(87, 199, 133, 1)" opacity="0.2" filter="blur(3px)"></circle><circle r="3.5" cx="739" cy="460" fill="rgba(87, 199, 133, 1)" opacity="0.68" filter="drop-shadow(0 0 35px rgba(87, 199, 133, 1))"></circle><circle r="29.75" cx="466" cy="366" fill="rgba(87, 199, 133, 1)" opacity="0.07" filter="blur(9px)"></circle><circle r="21" cx="466" cy="366" fill="rgba(87, 199, 133, 1)" opacity="0.11" filter="blur(6px)"></circle><circle r="12.25" cx="466" cy="366" fill="rgba(87, 199, 133, 1)" opacity="0.21" filter="blur(3px)"></circle><circle r="3.5" cx="466" cy="366" fill="rgba(87, 199, 133, 1)" opacity="0.71" filter="drop-shadow(0 0 35px rgba(87, 199, 133, 1))"></circle><circle r="29.75" cx="1156" cy="203" fill="rgba(42, 123, 155, 1)" opacity="0.08" filter="blur(9px)"></circle><circle r="21" cx="1156" cy="203" fill="rgba(42, 123, 155, 1)" opacity="0.12" filter="blur(6px)"></circle><circle r="12.25" cx="1156" cy="203" fill="rgba(42, 123, 155, 1)" opacity="0.24" filter="blur(3px)"></circle><circle r="3.5" cx="1156" cy="203" fill="rgba(42, 123, 155, 1)" opacity="0.8" filter="drop-shadow(0 0 35px rgba(42, 123, 155, 1))"></circle><circle r="25.5" cx="123" cy="523" fill="rgba(237, 221, 83, 1)" opacity="0.1" filter="blur(9px)"></circle><circle r="18" cx="123" cy="523" fill="rgba(237, 221, 83, 1)" opacity="0.15" filter="blur(6px)"></circle><circle r="10.5" cx="123" cy="523" fill="rgba(237, 221, 83, 1)" opacity="0.3" filter="blur(3px)"></circle><circle r="3" cx="123" cy="523" fill="rgba(237, 221, 83, 1)" opacity="0.99" filter="drop-shadow(0 0 30px rgba(237, 221, 83, 1))"></circle><circle r="42.5" cx="93" cy="486" fill="rgba(42, 123, 155, 1)" opacity="0.1" filter="blur(9px)"></circle><circle r="30" cx="93" cy="486" fill="rgba(42, 123, 155, 1)" opacity="0.14" filter="blur(6px)"></circle><circle r="17.5" cx="93" cy="486" fill="rgba(42, 123, 155, 1)" opacity="0.29" filter="blur(3px)"></circle><circle r="5" cx="93" cy="486" fill="rgba(42, 123, 155, 1)" opacity="0.96" filter="drop-shadow(0 0 50px rgba(42, 123, 155, 1))"></circle><circle r="42.5" cx="1135" cy="158" fill="rgba(87, 199, 133, 1)" opacity="0.06" filter="blur(9px)"></circle><circle r="30" cx="1135" cy="158" fill="rgba(87, 199, 133, 1)" opacity="0.08" filter="blur(6px)"></circle><circle r="17.5" cx="1135" cy="158" fill="rgba(87, 199, 133, 1)" opacity="0.17" filter="blur(3px)"></circle><circle r="5" cx="1135" cy="158" fill="rgba(87, 199, 133, 1)" opacity="0.55" filter="drop-shadow(0 0 50px rgba(87, 199, 133, 1))"></circle><circle r="38.25" cx="1335" cy="299" fill="rgba(42, 123, 155, 1)" opacity="0.05" filter="blur(9px)"></circle><circle r="27" cx="1335" cy="299" fill="rgba(42, 123, 155, 1)" opacity="0.08" filter="blur(6px)"></circle><circle r="15.75" cx="1335" cy="299" fill="rgba(42, 123, 155, 1)" opacity="0.16" filter="blur(3px)"></circle><circle r="4.5" cx="1335" cy="299" fill="rgba(42, 123, 155, 1)" opacity="0.52" filter="drop-shadow(0 0 45px rgba(42, 123, 155, 1))"></circle><circle r="34" cx="123" cy="98" fill="rgba(42, 123, 155, 1)" opacity="0.06" filter="blur(9px)"></circle><circle r="24" cx="123" cy="98" fill="rgba(42, 123, 155, 1)" opacity="0.09" filter="blur(6px)"></circle><circle r="14" cx="123" cy="98" fill="rgba(42, 123, 155, 1)" opacity="0.18" filter="blur(3px)"></circle><circle r="4" cx="123" cy="98" fill="rgba(42, 123, 155, 1)" opacity="0.59" filter="drop-shadow(0 0 40px rgba(42, 123, 155, 1))"></circle><circle r="34" cx="1162" cy="177" fill="rgba(87, 199, 133, 1)" opacity="0.1" filter="blur(9px)"></circle><circle r="24" cx="1162" cy="177" fill="rgba(87, 199, 133, 1)" opacity="0.14" filter="blur(6px)"></circle><circle r="14" cx="1162" cy="177" fill="rgba(87, 199, 133, 1)" opacity="0.29" filter="blur(3px)"></circle><circle r="4" cx="1162" cy="177" fill="rgba(87, 199, 133, 1)" opacity="0.96" filter="drop-shadow(0 0 40px rgba(87, 199, 133, 1))"></circle><circle r="29.75" cx="1199" cy="355" fill="rgba(87, 199, 133, 1)" opacity="0.1" filter="blur(9px)"></circle><circle r="21" cx="1199" cy="355" fill="rgba(87, 199, 133, 1)" opacity="0.15" filter="blur(6px)"></circle><circle r="12.25" cx="1199" cy="355" fill="rgba(87, 199, 133, 1)" opacity="0.3" filter="blur(3px)"></circle><circle r="3.5" cx="1199" cy="355" fill="rgba(87, 199, 133, 1)" opacity="0.99" filter="drop-shadow(0 0 35px rgba(87, 199, 133, 1))"></circle><circle r="25.5" cx="1388" cy="362" fill="rgba(42, 123, 155, 1)" opacity="0.1" filter="blur(9px)"></circle><circle r="18" cx="1388" cy="362" fill="rgba(42, 123, 155, 1)" opacity="0.15" filter="blur(6px)"></circle><circle r="10.5" cx="1388" cy="362" fill="rgba(42, 123, 155, 1)" opacity="0.3" filter="blur(3px)"></circle><circle r="3" cx="1388" cy="362" fill="rgba(42, 123, 155, 1)" opacity="0.99" filter="drop-shadow(0 0 30px rgba(42, 123, 155, 1))"></circle><circle r="21.25" cx="950" cy="240" fill="rgba(237, 221, 83, 1)" opacity="0.07" filter="blur(9px)"></circle><circle r="15" cx="950" cy="240" fill="rgba(237, 221, 83, 1)" opacity="0.1" filter="blur(6px)"></circle><circle r="8.75" cx="950" cy="240" fill="rgba(237, 221, 83, 1)" opacity="0.21" filter="blur(3px)"></circle><circle r="2.5" cx="950" cy="240" fill="rgba(237, 221, 83, 1)" opacity="0.69" filter="drop-shadow(0 0 25px rgba(237, 221, 83, 1))"></circle><circle r="29.75" cx="296" cy="54" fill="rgba(42, 123, 155, 1)" opacity="0.07" filter="blur(9px)"></circle><circle r="21" cx="296" cy="54" fill="rgba(42, 123, 155, 1)" opacity="0.11" filter="blur(6px)"></circle><circle r="12.25" cx="296" cy="54" fill="rgba(42, 123, 155, 1)" opacity="0.22" filter="blur(3px)"></circle><circle r="3.5" cx="296" cy="54" fill="rgba(42, 123, 155, 1)" opacity="0.72" filter="drop-shadow(0 0 35px rgba(42, 123, 155, 1))"></circle><circle r="29.75" cx="318" cy="75" fill="rgba(42, 123, 155, 1)" opacity="0.06" filter="blur(9px)"></circle><circle r="21" cx="318" cy="75" fill="rgba(42, 123, 155, 1)" opacity="0.09" filter="blur(6px)"></circle><circle r="12.25" cx="318" cy="75" fill="rgba(42, 123, 155, 1)" opacity="0.17" filter="blur(3px)"></circle><circle r="3.5" cx="318" cy="75" fill="rgba(42, 123, 155, 1)" opacity="0.57" filter="drop-shadow(0 0 35px rgba(42, 123, 155, 1))"></circle><circle r="38.25" cx="1222" cy="214" fill="rgba(237, 221, 83, 1)" opacity="0.1" filter="blur(9px)"></circle><circle r="27" cx="1222" cy="214" fill="rgba(237, 221, 83, 1)" opacity="0.15" filter="blur(6px)"></circle><circle r="15.75" cx="1222" cy="214" fill="rgba(237, 221, 83, 1)" opacity="0.3" filter="blur(3px)"></circle><circle r="4.5" cx="1222" cy="214" fill="rgba(237, 221, 83, 1)" opacity="0.99" filter="drop-shadow(0 0 45px rgba(237, 221, 83, 1))"></circle><circle r="29.75" cx="1346" cy="199" fill="rgba(237, 221, 83, 1)" opacity="0.08" filter="blur(9px)"></circle><circle r="21" cx="1346" cy="199" fill="rgba(237, 221, 83, 1)" opacity="0.12" filter="blur(6px)"></circle><circle r="12.25" cx="1346" cy="199" fill="rgba(237, 221, 83, 1)" opacity="0.25" filter="blur(3px)"></circle><circle r="3.5" cx="1346" cy="199" fill="rgba(237, 221, 83, 1)" opacity="0.82" filter="drop-shadow(0 0 35px rgba(237, 221, 83, 1))"></circle><circle r="29.75" cx="946" cy="540" fill="rgba(237, 221, 83, 1)" opacity="0.06" filter="blur(9px)"></circle><circle r="21" cx="946" cy="540" fill="rgba(237, 221, 83, 1)" opacity="0.09" filter="blur(6px)"></circle><circle r="12.25" cx="946" cy="540" fill="rgba(237, 221, 83, 1)" opacity="0.19" filter="blur(3px)"></circle><circle r="3.5" cx="946" cy="540" fill="rgba(237, 221, 83, 1)" opacity="0.62" filter="drop-shadow(0 0 35px rgba(237, 221, 83, 1))"></circle><circle r="38.25" cx="1047" cy="236" fill="rgba(237, 221, 83, 1)" opacity="0.07" filter="blur(9px)"></circle><circle r="27" cx="1047" cy="236" fill="rgba(237, 221, 83, 1)" opacity="0.1" filter="blur(6px)"></circle><circle r="15.75" cx="1047" cy="236" fill="rgba(237, 221, 83, 1)" opacity="0.2" filter="blur(3px)"></circle><circle r="4.5" cx="1047" cy="236" fill="rgba(237, 221, 83, 1)" opacity="0.68" filter="drop-shadow(0 0 45px rgba(237, 221, 83, 1))"></circle><circle r="42.5" cx="911" cy="466" fill="rgba(87, 199, 133, 1)" opacity="0.07" filter="blur(9px)"></circle><circle r="30" cx="911" cy="466" fill="rgba(87, 199, 133, 1)" opacity="0.1" filter="blur(6px)"></circle><circle r="17.5" cx="911" cy="466" fill="rgba(87, 199, 133, 1)" opacity="0.2" filter="blur(3px)"></circle><circle r="5" cx="911" cy="466" fill="rgba(87, 199, 133, 1)" opacity="0.67" filter="drop-shadow(0 0 50px rgba(87, 199, 133, 1))"></circle><circle r="38.25" cx="400" cy="381" fill="rgba(237, 221, 83, 1)" opacity="0.07" filter="blur(9px)"></circle><circle r="27" cx="400" cy="381" fill="rgba(237, 221, 83, 1)" opacity="0.1" filter="blur(6px)"></circle><circle r="15.75" cx="400" cy="381" fill="rgba(237, 221, 83, 1)" opacity="0.2" filter="blur(3px)"></circle><circle r="4.5" cx="400" cy="381" fill="rgba(237, 221, 83, 1)" opacity="0.65" filter="drop-shadow(0 0 45px rgba(237, 221, 83, 1))"></circle><circle r="42.5" cx="926" cy="530" fill="rgba(42, 123, 155, 1)" opacity="0.07" filter="blur(9px)"></circle><circle r="30" cx="926" cy="530" fill="rgba(42, 123, 155, 1)" opacity="0.11" filter="blur(6px)"></circle><circle r="17.5" cx="926" cy="530" fill="rgba(42, 123, 155, 1)" opacity="0.22" filter="blur(3px)"></circle><circle r="5" cx="926" cy="530" fill="rgba(42, 123, 155, 1)" opacity="0.72" filter="drop-shadow(0 0 50px rgba(42, 123, 155, 1))"></circle><circle r="29.75" cx="1217" cy="375" fill="rgba(237, 221, 83, 1)" opacity="0.06" filter="blur(9px)"></circle><circle r="21" cx="1217" cy="375" fill="rgba(237, 221, 83, 1)" opacity="0.09" filter="blur(6px)"></circle><circle r="12.25" cx="1217" cy="375" fill="rgba(237, 221, 83, 1)" opacity="0.17" filter="blur(3px)"></circle><circle r="3.5" cx="1217" cy="375" fill="rgba(237, 221, 83, 1)" opacity="0.57" filter="drop-shadow(0 0 35px rgba(237, 221, 83, 1))"></circle><circle r="38.25" cx="1226" cy="302" fill="rgba(237, 221, 83, 1)" opacity="0.09" filter="blur(9px)"></circle><circle r="27" cx="1226" cy="302" fill="rgba(237, 221, 83, 1)" opacity="0.14" filter="blur(6px)"></circle><circle r="15.75" cx="1226" cy="302" fill="rgba(237, 221, 83, 1)" opacity="0.27" filter="blur(3px)"></circle><circle r="4.5" cx="1226" cy="302" fill="rgba(237, 221, 83, 1)" opacity="0.9" filter="drop-shadow(0 0 45px rgba(237, 221, 83, 1))"></circle><circle r="42.5" cx="673" cy="362" fill="rgba(87, 199, 133, 1)" opacity="0.09" filter="blur(9px)"></circle><circle r="30" cx="673" cy="362" fill="rgba(87, 199, 133, 1)" opacity="0.14" filter="blur(6px)"></circle><circle r="17.5" cx="673" cy="362" fill="rgba(87, 199, 133, 1)" opacity="0.27" filter="blur(3px)"></circle><circle r="5" cx="673" cy="362" fill="rgba(87, 199, 133, 1)" opacity="0.9" filter="drop-shadow(0 0 50px rgba(87, 199, 133, 1))"></circle><circle r="25.5" cx="306" cy="406" fill="rgba(237, 221, 83, 1)" opacity="0.09" filter="blur(9px)"></circle><circle r="18" cx="306" cy="406" fill="rgba(237, 221, 83, 1)" opacity="0.14" filter="blur(6px)"></circle><circle r="10.5" cx="306" cy="406" fill="rgba(237, 221, 83, 1)" opacity="0.28" filter="blur(3px)"></circle><circle r="3" cx="306" cy="406" fill="rgba(237, 221, 83, 1)" opacity="0.92" filter="drop-shadow(0 0 30px rgba(237, 221, 83, 1))"></circle><circle r="38.25" cx="1283" cy="161" fill="rgba(87, 199, 133, 1)" opacity="0.09" filter="blur(9px)"></circle><circle r="27" cx="1283" cy="161" fill="rgba(87, 199, 133, 1)" opacity="0.14" filter="blur(6px)"></circle><circle r="15.75" cx="1283" cy="161" fill="rgba(87, 199, 133, 1)" opacity="0.27" filter="blur(3px)"></circle><circle r="4.5" cx="1283" cy="161" fill="rgba(87, 199, 133, 1)" opacity="0.9" filter="drop-shadow(0 0 45px rgba(87, 199, 133, 1))"></circle><circle r="38.25" cx="650" cy="223" fill="rgba(237, 221, 83, 1)" opacity="0.09" filter="blur(9px)"></circle><circle r="27" cx="650" cy="223" fill="rgba(237, 221, 83, 1)" opacity="0.14" filter="blur(6px)"></circle><circle r="15.75" cx="650" cy="223" fill="rgba(237, 221, 83, 1)" opacity="0.28" filter="blur(3px)"></circle><circle r="4.5" cx="650" cy="223" fill="rgba(237, 221, 83, 1)" opacity="0.94" filter="drop-shadow(0 0 45px rgba(237, 221, 83, 1))"></circle><circle r="29.75" cx="1263" cy="111" fill="rgba(87, 199, 133, 1)" opacity="0.09" filter="blur(9px)"></circle><circle r="21" cx="1263" cy="111" fill="rgba(87, 199, 133, 1)" opacity="0.13" filter="blur(6px)"></circle><circle r="12.25" cx="1263" cy="111" fill="rgba(87, 199, 133, 1)" opacity="0.26" filter="blur(3px)"></circle><circle r="3.5" cx="1263" cy="111" fill="rgba(87, 199, 133, 1)" opacity="0.87" filter="drop-shadow(0 0 35px rgba(87, 199, 133, 1))"></circle><circle r="25.5" cx="186" cy="242" fill="rgba(87, 199, 133, 1)" opacity="0.07" filter="blur(9px)"></circle><circle r="18" cx="186" cy="242" fill="rgba(87, 199, 133, 1)" opacity="0.11" filter="blur(6px)"></circle><circle r="10.5" cx="186" cy="242" fill="rgba(87, 199, 133, 1)" opacity="0.22" filter="blur(3px)"></circle><circle r="3" cx="186" cy="242" fill="rgba(87, 199, 133, 1)" opacity="0.74" filter="drop-shadow(0 0 30px rgba(87, 199, 133, 1))"></circle><circle r="25.5" cx="1054" cy="324" fill="rgba(87, 199, 133, 1)" opacity="0.08" filter="blur(9px)"></circle><circle r="18" cx="1054" cy="324" fill="rgba(87, 199, 133, 1)" opacity="0.12" filter="blur(6px)"></circle><circle r="10.5" cx="1054" cy="324" fill="rgba(87, 199, 133, 1)" opacity="0.24" filter="blur(3px)"></circle><circle r="3" cx="1054" cy="324" fill="rgba(87, 199, 133, 1)" opacity="0.79" filter="drop-shadow(0 0 30px rgba(87, 199, 133, 1))"></circle><circle r="34" cx="910" cy="476" fill="rgba(237, 221, 83, 1)" opacity="0.06" filter="blur(9px)"></circle><circle r="24" cx="910" cy="476" fill="rgba(237, 221, 83, 1)" opacity="0.09" filter="blur(6px)"></circle><circle r="14" cx="910" cy="476" fill="rgba(237, 221, 83, 1)" opacity="0.18" filter="blur(3px)"></circle><circle r="4" cx="910" cy="476" fill="rgba(237, 221, 83, 1)" opacity="0.59" filter="drop-shadow(0 0 40px rgba(237, 221, 83, 1))"></circle><circle r="34" cx="231" cy="209" fill="rgba(237, 221, 83, 1)" opacity="0.07" filter="blur(9px)"></circle><circle r="24" cx="231" cy="209" fill="rgba(237, 221, 83, 1)" opacity="0.11" filter="blur(6px)"></circle><circle r="14" cx="231" cy="209" fill="rgba(237, 221, 83, 1)" opacity="0.22" filter="blur(3px)"></circle><circle r="4" cx="231" cy="209" fill="rgba(237, 221, 83, 1)" opacity="0.75" filter="drop-shadow(0 0 40px rgba(237, 221, 83, 1))"></circle><circle r="29.75" cx="533" cy="105" fill="rgba(87, 199, 133, 1)" opacity="0.08" filter="blur(9px)"></circle><circle r="21" cx="533" cy="105" fill="rgba(87, 199, 133, 1)" opacity="0.11" filter="blur(6px)"></circle><circle r="12.25" cx="533" cy="105" fill="rgba(87, 199, 133, 1)" opacity="0.23" filter="blur(3px)"></circle><circle r="3.5" cx="533" cy="105" fill="rgba(87, 199, 133, 1)" opacity="0.76" filter="drop-shadow(0 0 35px rgba(87, 199, 133, 1))"></circle><circle r="21.25" cx="163" cy="88" fill="rgba(237, 221, 83, 1)" opacity="0.09" filter="blur(9px)"></circle><circle r="15" cx="163" cy="88" fill="rgba(237, 221, 83, 1)" opacity="0.14" filter="blur(6px)"></circle><circle r="8.75" cx="163" cy="88" fill="rgba(237, 221, 83, 1)" opacity="0.28" filter="blur(3px)"></circle><circle r="2.5" cx="163" cy="88" fill="rgba(237, 221, 83, 1)" opacity="0.93" filter="drop-shadow(0 0 25px rgba(237, 221, 83, 1))"></circle></g><defs><clipPath id="SvgjsClipPath1066"><rect width="1440" height="560" x="0" y="0"></rect></clipPath></defs></svg>