<svg xmlns="http://www.w3.org/2000/svg" version="1.1" xmlns:xlink="http://www.w3.org/1999/xlink" xmlns:svgjs="http://svgjs.dev/svgjs" width="1440" height="560" preserveAspectRatio="none" viewBox="0 0 1440 560"><g clip-path="url(&quot;#SvgjsClipPath1075&quot;)" fill="none"><circle r="18.5" cx="927" cy="399" fill="rgba(42, 123, 155, 1)" opacity="0.1" filter="blur(9px)"></circle><circle r="14" cx="927" cy="399" fill="rgba(42, 123, 155, 1)" opacity="0.15" filter="blur(6px)"></circle><circle r="9.5" cx="927" cy="399" fill="rgba(42, 123, 155, 1)" opacity="0.3" filter="blur(3px)"></circle><circle r="5" cx="927" cy="399" fill="rgba(42, 123, 155, 1)" opacity="1" filter="drop-shadow(0 0 18px rgba(42, 123, 155, 1))"></circle><circle r="11.925" cx="633" cy="541" fill="rgba(237, 221, 83, 1)" opacity="0.1" filter="blur(9px)"></circle><circle r="9.45" cx="633" cy="541" fill="rgba(237, 221, 83, 1)" opacity="0.15" filter="blur(6px)"></circle><circle r="6.975" cx="633" cy="541" fill="rgba(237, 221, 83, 1)" opacity="0.3" filter="blur(3px)"></circle><circle r="4.5" cx="633" cy="541" fill="rgba(237, 221, 83, 1)" opacity="1" filter="drop-shadow(0 0 9.9px rgba(237, 221, 83, 1))"></circle><circle r="9.75" cx="896" cy="405" fill="rgba(87, 199, 133, 1)" opacity="0.1" filter="blur(9px)"></circle><circle r="7.5" cx="896" cy="405" fill="rgba(87, 199, 133, 1)" opacity="0.15" filter="blur(6px)"></circle><circle r="5.25" cx="896" cy="405" fill="rgba(87, 199, 133, 1)" opacity="0.3" filter="blur(3px)"></circle><circle r="3" cx="896" cy="405" fill="rgba(87, 199, 133, 1)" opacity="1" filter="drop-shadow(0 0 9px rgba(87, 199, 133, 1))"></circle><circle r="17.75" cx="1406" cy="256" fill="rgba(237, 221, 83, 1)" opacity="0.1" filter="blur(9px)"></circle><circle r="13.5" cx="1406" cy="256" fill="rgba(237, 221, 83, 1)" opacity="0.15" filter="blur(6px)"></circle><circle r="9.25" cx="1406" cy="256" fill="rgba(237, 221, 83, 1)" opacity="0.3" filter="blur(3px)"></circle><circle r="5" cx="1406" cy="256" fill="rgba(237, 221, 83, 1)" opacity="1" filter="drop-shadow(0 0 17px rgba(237, 221, 83, 1))"></circle><circle r="14.8" cx="951" cy="374" fill="rgba(237, 221, 83, 1)" opacity="0.1" filter="blur(9px)"></circle><circle r="11.2" cx="951" cy="374" fill="rgba(237, 221, 83, 1)" opacity="0.15" filter="blur(6px)"></circle><circle r="7.6" cx="951" cy="374" fill="rgba(237, 221, 83, 1)" opacity="0.3" filter="blur(3px)"></circle><circle r="4" cx="951" cy="374" fill="rgba(237, 221, 83, 1)" opacity="1" filter="drop-shadow(0 0 14.4px rgba(237, 221, 83, 1))"></circle><circle r="9.8" cx="844" cy="15" fill="rgba(42, 123, 155, 1)" opacity="0.1" filter="blur(9px)"></circle><circle r="7.7" cx="844" cy="15" fill="rgba(42, 123, 155, 1)" opacity="0.15" filter="blur(6px)"></circle><circle r="5.6" cx="844" cy="15" fill="rgba(42, 123, 155, 1)" opacity="0.3" filter="blur(3px)"></circle><circle r="3.5" cx="844" cy="15" fill="rgba(42, 123, 155, 1)" opacity="1" filter="drop-shadow(0 0 8.4px rgba(42, 123, 155, 1))"></circle><circle r="11.925" cx="1319" cy="161" fill="rgba(87, 199, 133, 1)" opacity="0.1" filter="blur(9px)"></circle><circle r="9.45" cx="1319" cy="161" fill="rgba(87, 199, 133, 1)" opacity="0.15" filter="blur(6px)"></circle><circle r="6.975" cx="1319" cy="161" fill="rgba(87, 199, 133, 1)" opacity="0.3" filter="blur(3px)"></circle><circle r="4.5" cx="1319" cy="161" fill="rgba(87, 199, 133, 1)" opacity="1" filter="drop-shadow(0 0 9.9px rgba(87, 199, 133, 1))"></circle><circle r="7.95" cx="462" cy="482" fill="rgba(42, 123, 155, 1)" opacity="0.1" filter="blur(9px)"></circle><circle r="6.3" cx="462" cy="482" fill="rgba(42, 123, 155, 1)" opacity="0.15" filter="blur(6px)"></circle><circle r="4.65" cx="462" cy="482" fill="rgba(42, 123, 155, 1)" opacity="0.3" filter="blur(3px)"></circle><circle r="3" cx="462" cy="482" fill="rgba(42, 123, 155, 1)" opacity="1" filter="drop-shadow(0 0 6.6px rgba(42, 123, 155, 1))"></circle><circle r="18" cx="434" cy="307" fill="rgba(237, 221, 83, 1)" opacity="0.1" filter="blur(9px)"></circle><circle r="13.5" cx="434" cy="307" fill="rgba(237, 221, 83, 1)" opacity="0.15" filter="blur(6px)"></circle><circle r="9" cx="434" cy="307" fill="rgba(237, 221, 83, 1)" opacity="0.3" filter="blur(3px)"></circle><circle r="4.5" cx="434" cy="307" fill="rgba(237, 221, 83, 1)" opacity="1" filter="drop-shadow(0 0 18px rgba(237, 221, 83, 1))"></circle><circle r="11.55" cx="969" cy="347" fill="rgba(42, 123, 155, 1)" opacity="0.1" filter="blur(9px)"></circle><circle r="8.7" cx="969" cy="347" fill="rgba(42, 123, 155, 1)" opacity="0.15" filter="blur(6px)"></circle><circle r="5.85" cx="969" cy="347" fill="rgba(42, 123, 155, 1)" opacity="0.3" filter="blur(3px)"></circle><circle r="3" cx="969" cy="347" fill="rgba(42, 123, 155, 1)" opacity="1" filter="drop-shadow(0 0 11.4px rgba(42, 123, 155, 1))"></circle><circle r="15.3" cx="1099" cy="474" fill="rgba(87, 199, 133, 1)" opacity="0.1" filter="blur(9px)"></circle><circle r="11.7" cx="1099" cy="474" fill="rgba(87, 199, 133, 1)" opacity="0.15" filter="blur(6px)"></circle><circle r="8.1" cx="1099" cy="474" fill="rgba(87, 199, 133, 1)" opacity="0.3" filter="blur(3px)"></circle><circle r="4.5" cx="1099" cy="474" fill="rgba(87, 199, 133, 1)" opacity="1" filter="drop-shadow(0 0 14.4px rgba(87, 199, 133, 1))"></circle><circle r="12.95" cx="846" cy="404" fill="rgba(42, 123, 155, 1)" opacity="0.1" filter="blur(9px)"></circle><circle r="9.8" cx="846" cy="404" fill="rgba(42, 123, 155, 1)" opacity="0.15" filter="blur(6px)"></circle><circle r="6.65" cx="846" cy="404" fill="rgba(42, 123, 155, 1)" opacity="0.3" filter="blur(3px)"></circle><circle r="3.5" cx="846" cy="404" fill="rgba(42, 123, 155, 1)" opacity="1" filter="drop-shadow(0 0 12.6px rgba(42, 123, 155, 1))"></circle><circle r="13.475" cx="1178" cy="369" fill="rgba(237, 221, 83, 1)" opacity="0.1" filter="blur(9px)"></circle><circle r="10.15" cx="1178" cy="369" fill="rgba(237, 221, 83, 1)" opacity="0.15" filter="blur(6px)"></circle><circle r="6.825" cx="1178" cy="369" fill="rgba(237, 221, 83, 1)" opacity="0.3" filter="blur(3px)"></circle><circle r="3.5" cx="1178" cy="369" fill="rgba(237, 221, 83, 1)" opacity="1" filter="drop-shadow(0 0 13.3px rgba(237, 221, 83, 1))"></circle><circle r="11.1" cx="68" cy="316" fill="rgba(42, 123, 155, 1)" opacity="0.1" filter="blur(9px)"></circle><circle r="8.4" cx="68" cy="316" fill="rgba(42, 123, 155, 1)" opacity="0.15" filter="blur(6px)"></circle><circle r="5.7" cx="68" cy="316" fill="rgba(42, 123, 155, 1)" opacity="0.3" filter="blur(3px)"></circle><circle r="3" cx="68" cy="316" fill="rgba(42, 123, 155, 1)" opacity="1" filter="drop-shadow(0 0 10.8px rgba(42, 123, 155, 1))"></circle><circle r="9.275" cx="1363" cy="301" fill="rgba(237, 221, 83, 1)" opacity="0.1" filter="blur(9px)"></circle><circle r="7.35" cx="1363" cy="301" fill="rgba(237, 221, 83, 1)" opacity="0.15" filter="blur(6px)"></circle><circle r="5.425" cx="1363" cy="301" fill="rgba(237, 221, 83, 1)" opacity="0.3" filter="blur(3px)"></circle><circle r="3.5" cx="1363" cy="301" fill="rgba(237, 221, 83, 1)" opacity="1" filter="drop-shadow(0 0 7.7px rgba(237, 221, 83, 1))"></circle><circle r="11.1" cx="1272" cy="163" fill="rgba(87, 199, 133, 1)" opacity="0.1" filter="blur(9px)"></circle><circle r="8.4" cx="1272" cy="163" fill="rgba(87, 199, 133, 1)" opacity="0.15" filter="blur(6px)"></circle><circle r="5.7" cx="1272" cy="163" fill="rgba(87, 199, 133, 1)" opacity="0.3" filter="blur(3px)"></circle><circle r="3" cx="1272" cy="163" fill="rgba(87, 199, 133, 1)" opacity="1" filter="drop-shadow(0 0 10.8px rgba(87, 199, 133, 1))"></circle><circle r="14.2" cx="1381" cy="497" fill="rgba(237, 221, 83, 1)" opacity="0.1" filter="blur(9px)"></circle><circle r="10.8" cx="1381" cy="497" fill="rgba(237, 221, 83, 1)" opacity="0.15" filter="blur(6px)"></circle><circle r="7.4" cx="1381" cy="497" fill="rgba(237, 221, 83, 1)" opacity="0.3" filter="blur(3px)"></circle><circle r="4" cx="1381" cy="497" fill="rgba(237, 221, 83, 1)" opacity="1" filter="drop-shadow(0 0 13.6px rgba(237, 221, 83, 1))"></circle><circle r="9.275" cx="812" cy="105" fill="rgba(237, 221, 83, 1)" opacity="0.1" filter="blur(9px)"></circle><circle r="7.35" cx="812" cy="105" fill="rgba(237, 221, 83, 1)" opacity="0.15" filter="blur(6px)"></circle><circle r="5.425" cx="812" cy="105" fill="rgba(237, 221, 83, 1)" opacity="0.3" filter="blur(3px)"></circle><circle r="3.5" cx="812" cy="105" fill="rgba(237, 221, 83, 1)" opacity="1" filter="drop-shadow(0 0 7.7px rgba(237, 221, 83, 1))"></circle><circle r="15.3" cx="651" cy="540" fill="rgba(87, 199, 133, 1)" opacity="0.1" filter="blur(9px)"></circle><circle r="11.7" cx="651" cy="540" fill="rgba(87, 199, 133, 1)" opacity="0.15" filter="blur(6px)"></circle><circle r="8.1" cx="651" cy="540" fill="rgba(87, 199, 133, 1)" opacity="0.3" filter="blur(3px)"></circle><circle r="4.5" cx="651" cy="540" fill="rgba(87, 199, 133, 1)" opacity="1" filter="drop-shadow(0 0 14.4px rgba(87, 199, 133, 1))"></circle><circle r="13.95" cx="1161" cy="448" fill="rgba(87, 199, 133, 1)" opacity="0.1" filter="blur(9px)"></circle><circle r="10.8" cx="1161" cy="448" fill="rgba(87, 199, 133, 1)" opacity="0.15" filter="blur(6px)"></circle><circle r="7.65" cx="1161" cy="448" fill="rgba(87, 199, 133, 1)" opacity="0.3" filter="blur(3px)"></circle><circle r="4.5" cx="1161" cy="448" fill="rgba(87, 199, 133, 1)" opacity="1" filter="drop-shadow(0 0 12.6px rgba(87, 199, 133, 1))"></circle><circle r="14.625" cx="670" cy="450" fill="rgba(237, 221, 83, 1)" opacity="0.1" filter="blur(9px)"></circle><circle r="11.25" cx="670" cy="450" fill="rgba(237, 221, 83, 1)" opacity="0.15" filter="blur(6px)"></circle><circle r="7.875" cx="670" cy="450" fill="rgba(237, 221, 83, 1)" opacity="0.3" filter="blur(3px)"></circle><circle r="4.5" cx="670" cy="450" fill="rgba(237, 221, 83, 1)" opacity="1" filter="drop-shadow(0 0 13.5px rgba(237, 221, 83, 1))"></circle><circle r="12.4" cx="838" cy="541" fill="rgba(237, 221, 83, 1)" opacity="0.1" filter="blur(9px)"></circle><circle r="9.6" cx="838" cy="541" fill="rgba(237, 221, 83, 1)" opacity="0.15" filter="blur(6px)"></circle><circle r="6.8" cx="838" cy="541" fill="rgba(237, 221, 83, 1)" opacity="0.3" filter="blur(3px)"></circle><circle r="4" cx="838" cy="541" fill="rgba(237, 221, 83, 1)" opacity="1" filter="drop-shadow(0 0 11.2px rgba(237, 221, 83, 1))"></circle><circle r="15.975" cx="1153" cy="514" fill="rgba(42, 123, 155, 1)" opacity="0.1" filter="blur(9px)"></circle><circle r="12.15" cx="1153" cy="514" fill="rgba(42, 123, 155, 1)" opacity="0.15" filter="blur(6px)"></circle><circle r="8.325" cx="1153" cy="514" fill="rgba(42, 123, 155, 1)" opacity="0.3" filter="blur(3px)"></circle><circle r="4.5" cx="1153" cy="514" fill="rgba(42, 123, 155, 1)" opacity="1" filter="drop-shadow(0 0 15.3px rgba(42, 123, 155, 1))"></circle><circle r="10.65" cx="61" cy="16" fill="rgba(87, 199, 133, 1)" opacity="0.1" filter="blur(9px)"></circle><circle r="8.1" cx="61" cy="16" fill="rgba(87, 199, 133, 1)" opacity="0.15" filter="blur(6px)"></circle><circle r="5.55" cx="61" cy="16" fill="rgba(87, 199, 133, 1)" opacity="0.3" filter="blur(3px)"></circle><circle r="3" cx="61" cy="16" fill="rgba(87, 199, 133, 1)" opacity="1" filter="drop-shadow(0 0 10.2px rgba(87, 199, 133, 1))"></circle><circle r="14.8" cx="194" cy="421" fill="rgba(42, 123, 155, 1)" opacity="0.1" filter="blur(9px)"></circle><circle r="11.2" cx="194" cy="421" fill="rgba(42, 123, 155, 1)" opacity="0.15" filter="blur(6px)"></circle><circle r="7.6" cx="194" cy="421" fill="rgba(42, 123, 155, 1)" opacity="0.3" filter="blur(3px)"></circle><circle r="4" cx="194" cy="421" fill="rgba(42, 123, 155, 1)" opacity="1" filter="drop-shadow(0 0 14.4px rgba(42, 123, 155, 1))"></circle><circle r="16.25" cx="824" cy="175" fill="rgba(237, 221, 83, 1)" opacity="0.1" filter="blur(9px)"></circle><circle r="12.5" cx="824" cy="175" fill="rgba(237, 221, 83, 1)" opacity="0.15" filter="blur(6px)"></circle><circle r="8.75" cx="824" cy="175" fill="rgba(237, 221, 83, 1)" opacity="0.3" filter="blur(3px)"></circle><circle r="5" cx="824" cy="175" fill="rgba(237, 221, 83, 1)" opacity="1" filter="drop-shadow(0 0 15px rgba(237, 221, 83, 1))"></circle><circle r="13.275" cx="40" cy="220" fill="rgba(87, 199, 133, 1)" opacity="0.1" filter="blur(9px)"></circle><circle r="10.35" cx="40" cy="220" fill="rgba(87, 199, 133, 1)" opacity="0.15" filter="blur(6px)"></circle><circle r="7.425" cx="40" cy="220" fill="rgba(87, 199, 133, 1)" opacity="0.3" filter="blur(3px)"></circle><circle r="4.5" cx="40" cy="220" fill="rgba(87, 199, 133, 1)" opacity="1" filter="drop-shadow(0 0 11.7px rgba(87, 199, 133, 1))"></circle><circle r="16.25" cx="114" cy="89" fill="rgba(42, 123, 155, 1)" opacity="0.1" filter="blur(9px)"></circle><circle r="12.5" cx="114" cy="89" fill="rgba(42, 123, 155, 1)" opacity="0.15" filter="blur(6px)"></circle><circle r="8.75" cx="114" cy="89" fill="rgba(42, 123, 155, 1)" opacity="0.3" filter="blur(3px)"></circle><circle r="5" cx="114" cy="89" fill="rgba(42, 123, 155, 1)" opacity="1" filter="drop-shadow(0 0 15px rgba(42, 123, 155, 1))"></circle><circle r="19.25" cx="362" cy="77" fill="rgba(237, 221, 83, 1)" opacity="0.1" filter="blur(9px)"></circle><circle r="14.5" cx="362" cy="77" fill="rgba(237, 221, 83, 1)" opacity="0.15" filter="blur(6px)"></circle><circle r="9.75" cx="362" cy="77" fill="rgba(237, 221, 83, 1)" opacity="0.3" filter="blur(3px)"></circle><circle r="5" cx="362" cy="77" fill="rgba(237, 221, 83, 1)" opacity="1" filter="drop-shadow(0 0 19px rgba(237, 221, 83, 1))"></circle><circle r="17" cx="685" cy="493" fill="rgba(87, 199, 133, 1)" opacity="0.1" filter="blur(9px)"></circle><circle r="13" cx="685" cy="493" fill="rgba(87, 199, 133, 1)" opacity="0.15" filter="blur(6px)"></circle><circle r="9" cx="685" cy="493" fill="rgba(87, 199, 133, 1)" opacity="0.3" filter="blur(3px)"></circle><circle r="5" cx="685" cy="493" fill="rgba(87, 199, 133, 1)" opacity="1" filter="drop-shadow(0 0 16px rgba(87, 199, 133, 1))"></circle><circle r="18.5" cx="769" cy="25" fill="rgba(237, 221, 83, 1)" opacity="0.1" filter="blur(9px)"></circle><circle r="14" cx="769" cy="25" fill="rgba(237, 221, 83, 1)" opacity="0.15" filter="blur(6px)"></circle><circle r="9.5" cx="769" cy="25" fill="rgba(237, 221, 83, 1)" opacity="0.3" filter="blur(3px)"></circle><circle r="5" cx="769" cy="25" fill="rgba(237, 221, 83, 1)" opacity="1" filter="drop-shadow(0 0 18px rgba(237, 221, 83, 1))"></circle><circle r="16.65" cx="847" cy="469" fill="rgba(87, 199, 133, 1)" opacity="0.1" filter="blur(9px)"></circle><circle r="12.6" cx="847" cy="469" fill="rgba(87, 199, 133, 1)" opacity="0.15" filter="blur(6px)"></circle><circle r="8.55" cx="847" cy="469" fill="rgba(87, 199, 133, 1)" opacity="0.3" filter="blur(3px)"></circle><circle r="4.5" cx="847" cy="469" fill="rgba(87, 199, 133, 1)" opacity="1" filter="drop-shadow(0 0 16.2px rgba(87, 199, 133, 1))"></circle><circle r="11.55" cx="1027" cy="374" fill="rgba(87, 199, 133, 1)" opacity="0.1" filter="blur(9px)"></circle><circle r="8.7" cx="1027" cy="374" fill="rgba(87, 199, 133, 1)" opacity="0.15" filter="blur(6px)"></circle><circle r="5.85" cx="1027" cy="374" fill="rgba(87, 199, 133, 1)" opacity="0.3" filter="blur(3px)"></circle><circle r="3" cx="1027" cy="374" fill="rgba(87, 199, 133, 1)" opacity="1" filter="drop-shadow(0 0 11.4px rgba(87, 199, 133, 1))"></circle><circle r="17.325" cx="1233" cy="222" fill="rgba(237, 221, 83, 1)" opacity="0.1" filter="blur(9px)"></circle><circle r="13.05" cx="1233" cy="222" fill="rgba(237, 221, 83, 1)" opacity="0.15" filter="blur(6px)"></circle><circle r="8.775" cx="1233" cy="222" fill="rgba(237, 221, 83, 1)" opacity="0.3" filter="blur(3px)"></circle><circle r="4.5" cx="1233" cy="222" fill="rgba(237, 221, 83, 1)" opacity="1" filter="drop-shadow(0 0 17.1px rgba(237, 221, 83, 1))"></circle><circle r="13.475" cx="220" cy="275" fill="rgba(42, 123, 155, 1)" opacity="0.1" filter="blur(9px)"></circle><circle r="10.15" cx="220" cy="275" fill="rgba(42, 123, 155, 1)" opacity="0.15" filter="blur(6px)"></circle><circle r="6.825" cx="220" cy="275" fill="rgba(42, 123, 155, 1)" opacity="0.3" filter="blur(3px)"></circle><circle r="3.5" cx="220" cy="275" fill="rgba(42, 123, 155, 1)" opacity="1" filter="drop-shadow(0 0 13.3px rgba(42, 123, 155, 1))"></circle><circle r="14" cx="485" cy="28" fill="rgba(42, 123, 155, 1)" opacity="0.1" filter="blur(9px)"></circle><circle r="11" cx="485" cy="28" fill="rgba(42, 123, 155, 1)" opacity="0.15" filter="blur(6px)"></circle><circle r="8" cx="485" cy="28" fill="rgba(42, 123, 155, 1)" opacity="0.3" filter="blur(3px)"></circle><circle r="5" cx="485" cy="28" fill="rgba(42, 123, 155, 1)" opacity="1" filter="drop-shadow(0 0 12px rgba(42, 123, 155, 1))"></circle><circle r="12.95" cx="1065" cy="355" fill="rgba(42, 123, 155, 1)" opacity="0.1" filter="blur(9px)"></circle><circle r="9.8" cx="1065" cy="355" fill="rgba(42, 123, 155, 1)" opacity="0.15" filter="blur(6px)"></circle><circle r="6.65" cx="1065" cy="355" fill="rgba(42, 123, 155, 1)" opacity="0.3" filter="blur(3px)"></circle><circle r="3.5" cx="1065" cy="355" fill="rgba(42, 123, 155, 1)" opacity="1" filter="drop-shadow(0 0 12.6px rgba(42, 123, 155, 1))"></circle><circle r="11.9" cx="1409" cy="384" fill="rgba(237, 221, 83, 1)" opacity="0.1" filter="blur(9px)"></circle><circle r="9.1" cx="1409" cy="384" fill="rgba(237, 221, 83, 1)" opacity="0.15" filter="blur(6px)"></circle><circle r="6.3" cx="1409" cy="384" fill="rgba(237, 221, 83, 1)" opacity="0.3" filter="blur(3px)"></circle><circle r="3.5" cx="1409" cy="384" fill="rgba(237, 221, 83, 1)" opacity="1" filter="drop-shadow(0 0 11.2px rgba(237, 221, 83, 1))"></circle><circle r="9.3" cx="162" cy="520" fill="rgba(42, 123, 155, 1)" opacity="0.1" filter="blur(9px)"></circle><circle r="7.2" cx="162" cy="520" fill="rgba(42, 123, 155, 1)" opacity="0.15" filter="blur(6px)"></circle><circle r="5.1" cx="162" cy="520" fill="rgba(42, 123, 155, 1)" opacity="0.3" filter="blur(3px)"></circle><circle r="3" cx="162" cy="520" fill="rgba(42, 123, 155, 1)" opacity="1" filter="drop-shadow(0 0 8.4px rgba(42, 123, 155, 1))"></circle><circle r="11.9" cx="82" cy="195" fill="rgba(237, 221, 83, 1)" opacity="0.1" filter="blur(9px)"></circle><circle r="9.1" cx="82" cy="195" fill="rgba(237, 221, 83, 1)" opacity="0.15" filter="blur(6px)"></circle><circle r="6.3" cx="82" cy="195" fill="rgba(237, 221, 83, 1)" opacity="0.3" filter="blur(3px)"></circle><circle r="3.5" cx="82" cy="195" fill="rgba(237, 221, 83, 1)" opacity="1" filter="drop-shadow(0 0 11.2px rgba(237, 221, 83, 1))"></circle><circle r="17.325" cx="1392" cy="106" fill="rgba(42, 123, 155, 1)" opacity="0.1" filter="blur(9px)"></circle><circle r="13.05" cx="1392" cy="106" fill="rgba(42, 123, 155, 1)" opacity="0.15" filter="blur(6px)"></circle><circle r="8.775" cx="1392" cy="106" fill="rgba(42, 123, 155, 1)" opacity="0.3" filter="blur(3px)"></circle><circle r="4.5" cx="1392" cy="106" fill="rgba(42, 123, 155, 1)" opacity="1" filter="drop-shadow(0 0 17.1px rgba(42, 123, 155, 1))"></circle><circle r="12.95" cx="470" cy="454" fill="rgba(87, 199, 133, 1)" opacity="0.1" filter="blur(9px)"></circle><circle r="9.8" cx="470" cy="454" fill="rgba(87, 199, 133, 1)" opacity="0.15" filter="blur(6px)"></circle><circle r="6.65" cx="470" cy="454" fill="rgba(87, 199, 133, 1)" opacity="0.3" filter="blur(3px)"></circle><circle r="3.5" cx="470" cy="454" fill="rgba(87, 199, 133, 1)" opacity="1" filter="drop-shadow(0 0 12.6px rgba(87, 199, 133, 1))"></circle><circle r="8.75" cx="231" cy="257" fill="rgba(237, 221, 83, 1)" opacity="0.1" filter="blur(9px)"></circle><circle r="7" cx="231" cy="257" fill="rgba(237, 221, 83, 1)" opacity="0.15" filter="blur(6px)"></circle><circle r="5.25" cx="231" cy="257" fill="rgba(237, 221, 83, 1)" opacity="0.3" filter="blur(3px)"></circle><circle r="3.5" cx="231" cy="257" fill="rgba(237, 221, 83, 1)" opacity="1" filter="drop-shadow(0 0 7px rgba(237, 221, 83, 1))"></circle><circle r="14" cx="319" cy="46" fill="rgba(87, 199, 133, 1)" opacity="0.1" filter="blur(9px)"></circle><circle r="11" cx="319" cy="46" fill="rgba(87, 199, 133, 1)" opacity="0.15" filter="blur(6px)"></circle><circle r="8" cx="319" cy="46" fill="rgba(87, 199, 133, 1)" opacity="0.3" filter="blur(3px)"></circle><circle r="5" cx="319" cy="46" fill="rgba(87, 199, 133, 1)" opacity="1" filter="drop-shadow(0 0 12px rgba(87, 199, 133, 1))"></circle><circle r="12.425" cx="872" cy="370" fill="rgba(87, 199, 133, 1)" opacity="0.1" filter="blur(9px)"></circle><circle r="9.45" cx="872" cy="370" fill="rgba(87, 199, 133, 1)" opacity="0.15" filter="blur(6px)"></circle><circle r="6.475" cx="872" cy="370" fill="rgba(87, 199, 133, 1)" opacity="0.3" filter="blur(3px)"></circle><circle r="3.5" cx="872" cy="370" fill="rgba(87, 199, 133, 1)" opacity="1" filter="drop-shadow(0 0 11.9px rgba(87, 199, 133, 1))"></circle></g><defs><clipPath id="SvgjsClipPath1075"><rect width="1440" height="560" x="0" y="0"></rect></clipPath></defs></svg>